<svg xmlns="http://www.w3.org/2000/svg" width="72.62" height="15" viewBox="0 0 72.62 15"><defs><style>.a{fill-rule:evenodd;}</style></defs><g transform="translate(-2.4 -1.5)"><path class="a" d="M13.1,13.345l-.8.717-1.95-1.75.8-.717ZM9.886,1.5A7.513,7.513,0,0,0,5.1,14.779l6.4-5.765L10.345,7.982l.8-.717,1.95,1.75-7.113,6.4A7.515,7.515,0,0,0,14.7,3.221l-6.4,5.794,1.147,1.033-.8.717L6.7,9.014l7.113-6.4A7.385,7.385,0,0,0,9.886,1.5ZM6.7,4.684l.8-.717,1.95,1.75-.8.717Z" transform="translate(0)"/><path d="M63.263,18.8a2.585,2.585,0,0,1-1.119-.6,1.693,1.693,0,0,1-.4-1.2,1.83,1.83,0,0,1,.688-1.52,2.949,2.949,0,0,1,1.922-.545,5.363,5.363,0,0,1,.975.086,7.051,7.051,0,0,1,.975.258l-.86,1.147c-.057-.029-.115-.029-.172-.057a3.56,3.56,0,0,0-.774-.086,1.536,1.536,0,0,0-.688.143.516.516,0,0,0-.086.832,2.618,2.618,0,0,0,.488.229l.746.229a2.631,2.631,0,0,1,.66.258,1.577,1.577,0,0,1,.488.373,1.145,1.145,0,0,1,.316.545,2.1,2.1,0,0,1,.115.774,1.922,1.922,0,0,1-.2.889,1.988,1.988,0,0,1-.574.717,2.793,2.793,0,0,1-.918.488,4.134,4.134,0,0,1-1.233.172,3.657,3.657,0,0,1-.574-.029l-.488-.057a2.149,2.149,0,0,1-.459-.115,2,2,0,0,1-.488-.172l.115-.688a3.363,3.363,0,0,1,.258-.688,5.177,5.177,0,0,0,.8.258,3.628,3.628,0,0,0,.8.086,2.032,2.032,0,0,0,.4-.029,2.113,2.113,0,0,0,.4-.115.813.813,0,0,0,.315-.229.457.457,0,0,0,.115-.344.5.5,0,0,0-.172-.43,1.453,1.453,0,0,0-.516-.229ZM72.5,14.986a.364.364,0,0,1,.172.029c.115.029.258.029.373.057a.307.307,0,0,1,.057.172c.029.086.029.172.057.258s.029.172.057.258c0,.086.029.172.029.229a4.076,4.076,0,0,1,.688-.717,1.763,1.763,0,0,1,1.033-.315h.287c.115,0,.2.029.258.029a.884.884,0,0,1,.029.287v.344a2.949,2.949,0,0,1-.029.488,2.527,2.527,0,0,1-.057.488,1.075,1.075,0,0,0-.315-.029h-.2a3.193,3.193,0,0,0-.488.057,1.365,1.365,0,0,0-.516.229,1.279,1.279,0,0,0-.4.574,2.791,2.791,0,0,0-.172,1.09v3.155c-.143.029-.315.029-.459.057h-.889a2.51,2.51,0,0,1-.459-.057V16.191Zm6.367,6.855a3.512,3.512,0,0,1-1.405-.258,2.536,2.536,0,0,1-.975-.746,3.666,3.666,0,0,1-.6-1.09,4.147,4.147,0,0,1-.2-1.348,4.323,4.323,0,0,1,.2-1.377,3.011,3.011,0,0,1,.6-1.119,3.154,3.154,0,0,1,.975-.746,3.955,3.955,0,0,1,2.811,0,2.635,2.635,0,0,1,1,.746,3.488,3.488,0,0,1,.6,1.119,5.317,5.317,0,0,1,.2,1.377,4.031,4.031,0,0,1-.2,1.348,2.546,2.546,0,0,1-.6,1.09,3.277,3.277,0,0,1-1,.746A3.512,3.512,0,0,1,78.866,21.841Zm0-1.377a1.065,1.065,0,0,0,1.033-.545,3.2,3.2,0,0,0,.315-1.549,3.285,3.285,0,0,0-.315-1.549,1.065,1.065,0,0,0-1.033-.545,1.122,1.122,0,0,0-1.033.545,3.127,3.127,0,0,0-.315,1.549,3.285,3.285,0,0,0,.315,1.549A1.122,1.122,0,0,0,78.866,20.464Zm4.962-5.478a.364.364,0,0,1,.172.029,1.44,1.44,0,0,1,.344.057.307.307,0,0,1,.057.172c.029.086.029.172.057.258s.029.172.057.258c0,.086.029.172.029.229a3.635,3.635,0,0,1,.315-.373,1.747,1.747,0,0,1,.43-.344,3.179,3.179,0,0,1,.545-.258,2.3,2.3,0,0,1,.66-.086,2.126,2.126,0,0,1,1.692.631,2.828,2.828,0,0,1,.574,1.95v4.245a4.97,4.97,0,0,1-.918.086,5.21,5.21,0,0,1-.918-.086V17.94a2.114,2.114,0,0,0-.2-1.061.781.781,0,0,0-.746-.373,2.86,2.86,0,0,0-.459.057.865.865,0,0,0-.43.258,1.449,1.449,0,0,0-.315.516,2.5,2.5,0,0,0-.115.86v3.47a4.971,4.971,0,0,1-.918.086,5.21,5.21,0,0,1-.918-.086V16.191Zm9.665,5.593a2.79,2.79,0,0,1,1.721.516,1.756,1.756,0,0,1,.545,1.405,1.628,1.628,0,0,1-.287.975,2.748,2.748,0,0,1-.774.746,4.191,4.191,0,0,1-1.147.488,5.779,5.779,0,0,1-1.434.172,5.94,5.94,0,0,1-1.319-.115,2.876,2.876,0,0,1-.889-.344,1.115,1.115,0,0,1-.488-.545,1.879,1.879,0,0,1-.143-.717,1.486,1.486,0,0,1,.287-.946,2.414,2.414,0,0,1,.746-.66,1.328,1.328,0,0,1-.459-.43,1.223,1.223,0,0,1-.172-.688,1.393,1.393,0,0,1,.2-.8,2.979,2.979,0,0,1,.6-.6,2.207,2.207,0,0,1-.688-.774,2.121,2.121,0,0,1-.258-1.033,1.959,1.959,0,0,1,.2-.918,2.01,2.01,0,0,1,.545-.746,2.954,2.954,0,0,1,.889-.488,3.754,3.754,0,0,1,1.176-.172,3.069,3.069,0,0,1,1.176.2,2.906,2.906,0,0,1,.889.516,1.963,1.963,0,0,1,.6-.488,2.285,2.285,0,0,1,.975-.172c.029.115.029.229.057.315,0,.115.029.229.029.344,0,.143.2.315.2.43,0,.143.086.631-.029.545a1.335,1.335,0,0,0-1.262-.172c.029.086.086.2.115.315a2.061,2.061,0,0,1,.057.488,2.378,2.378,0,0,1-.172.918,2.01,2.01,0,0,1-.545.746,2.644,2.644,0,0,1-.889.488,3.754,3.754,0,0,1-1.176.172,3.372,3.372,0,0,1-.975-.115.534.534,0,0,0-.258.315,1.219,1.219,0,0,0-.057.315.475.475,0,0,0,.143.344.775.775,0,0,0,.545.143l1.721.029Zm-1.635,1.348a1.051,1.051,0,0,0-.459.057.732.732,0,0,0-.287.2.586.586,0,0,0-.143.258,1.019,1.019,0,0,0-.057.287.651.651,0,0,0,.373.66,2.377,2.377,0,0,0,.975.172A2.711,2.711,0,0,0,93.55,23.3a.791.791,0,0,0,.459-.946.462.462,0,0,0-.115-.2,1,1,0,0,0-.258-.172,1.736,1.736,0,0,0-.43-.057H91.858Zm.516-3.528a.9.9,0,0,0,.774-.315,1.282,1.282,0,0,0,.229-.86,1.528,1.528,0,0,0-.229-.86.971.971,0,0,0-.774-.315.994.994,0,0,0-.8.315,1.285,1.285,0,0,0-.258.86,1.338,1.338,0,0,0,.258.86A.912.912,0,0,0,92.374,18.4Z" transform="translate(-42.221 -9.557)"/><path d="M96.279,10.493a8.178,8.178,0,0,1,1.405.115L98.975,16l1.463-5.392a1.076,1.076,0,0,1,.315-.029h.344c.143,0,.258.029.344.029s.2.029.287.029l1.434,5.306,1.291-5.306a.976.976,0,0,1,.287-.029h.631c.115,0,.229.029.344.029l-1.979,6.6a1.4,1.4,0,0,1-.344.029h-.631c-.115,0-.229-.029-.344-.029l-1.405-4.99-1.491,4.99a1.4,1.4,0,0,1-.344.029h-.631c-.115,0-.229-.029-.315-.029l-1.95-6.74Zm13.537,3.614c-.115-.029-.287-.029-.488-.057a3.316,3.316,0,0,0-.488-.029,1.965,1.965,0,0,0-1.2.287,1,1,0,0,0-.43.889,1.166,1.166,0,0,0,.143.6.988.988,0,0,0,.344.344,1.229,1.229,0,0,0,.459.143,2.95,2.95,0,0,0,.488.029l.6-.029.545-.086V14.107Zm0-1.262a1.255,1.255,0,0,0-.373-1.061,1.794,1.794,0,0,0-1.119-.287,7.576,7.576,0,0,0-.832.057l-.774.172a1.938,1.938,0,0,1-.258-1,7.01,7.01,0,0,1,.975-.229,6.192,6.192,0,0,1,1-.086,2.93,2.93,0,0,1,1.95.574,2.313,2.313,0,0,1,.66,1.864v4.187l-1.09.2a6.643,6.643,0,0,1-1.319.115,4.711,4.711,0,0,1-1.147-.115,2.369,2.369,0,0,1-.86-.373,1.73,1.73,0,0,1-.545-.66,2.347,2.347,0,0,1-.2-.975,2.127,2.127,0,0,1,.229-.975,1.752,1.752,0,0,1,.6-.688,2.806,2.806,0,0,1,.889-.4,4.306,4.306,0,0,1,1.061-.143l.688.029a1.736,1.736,0,0,1,.43.057v-.258Zm4.732,3.9,1.893-6.138a4.241,4.241,0,0,1,.631-.029h.315c.115,0,.229.029.373.029l-2.553,7.916a6.94,6.94,0,0,1-.373.889,2.305,2.305,0,0,1-.43.574,1.5,1.5,0,0,1-.545.315,2.51,2.51,0,0,1-.688.086,3.531,3.531,0,0,1-.574-.057,2.3,2.3,0,0,1-.516-.115,2.575,2.575,0,0,1,.057-.516,2.821,2.821,0,0,1,.143-.459,2.327,2.327,0,0,0,.315.086,2.214,2.214,0,0,0,.43.057,1.076,1.076,0,0,0,.315-.029,1.2,1.2,0,0,0,.287-.115.6.6,0,0,0,.229-.287,1.56,1.56,0,0,0,.2-.488l.4-1.233.086-.488Zm-1,.287-2.122-6.424a1.4,1.4,0,0,1,.344-.029h.717c.143,0,.258.029.344.029l1.405,4.732-.373,1.176-.115.459a.123.123,0,0,1-.2.057Zm-45.6-5.105H67.11l-.057-.258L69.462,8.6h.287v1.95H71.3c.029.115.029.258.057.344v.66a1.976,1.976,0,0,1-.057.373H69.749v2.61a3.382,3.382,0,0,0,.057.631.9.9,0,0,0,.172.373.6.6,0,0,0,.315.2,1.736,1.736,0,0,0,.43.057,1.635,1.635,0,0,0,.373-.029c.115-.029.229-.029.315-.057a1.675,1.675,0,0,1,.115.516,2.793,2.793,0,0,1,.029.459v.229a.364.364,0,0,1-.029.172,5.8,5.8,0,0,1-1.233.143,2.54,2.54,0,0,1-1.778-.545,2.3,2.3,0,0,1-.631-1.778V11.927Z" transform="translate(-42.741 -5.064)"/></g></svg>